{"title":"Star.Wars.The.Force.Awakens.2015.UNMARKED.TS.XviD-VAiN","uid":13333225,"size":1388320217,"categoryP":"video","categoryS":"movies","magnet":"?xt=urn:btih:0cd44b51116d374739cc678125e10ade95e9a0e2&amp;dn=Star.Wars.The.Force.Awakens.2015.UNMARKED.TS.XviD-VAiN&amp;tr=udp%3A%2F%2Ftracker.leechers-paradise.org%3A6969&amp;tr=udp%3A%2F%2Fzer0day.ch%3A1337&amp;tr=udp%3A%2F%2Fopen.demonii.com%3A1337&amp;tr=udp%3A%2F%2Ftracker.coppersurfer.tk%3A6969&amp;tr=udp%3A%2F%2Fexodus.desync.com%3A6969","seeders":0,"leechers":0,"uploader":"xxxlavalxxx","files":5,"time":1453960728,"description":"http://extraimago.com/image/5c2\r\n \nhttp://www.imdb.com/title/tt2488496/\r\n\r\n\r\nThree decades after the defeat of the Galactic Empire, a new threat arises. The First Order attempts to rule the galaxy and only a rag-tag group of heroes can stop them, along with the help of the Resistance.\r\n\r\nDirector: J.J. Abrams\r\nWriters: Lawrence Kasdan, J.J. Abrams\r\nStars: Daisy Ridley, John Boyega, Oscar Isaac \r\nGenres: Action | Adventure | Fantasy | Sci-Fi\r\nCountry: USA\r\nLanguage: English\r\n\r\n\r\nT E C H N i C A L . i N F O . . .\r\n\r\nBasic Information\r\nFormat                      : AVI\r\nFormat/Info                 : Audio Video Interleave\r\nFile size                   : 1.28 GiB\r\nDuration                    : 2h 7mn\r\nOverall bit rate            : 1 438 Kbps\r\nWriting application         : VirtualDubMod 1.5.10.2 (build 2540/release)\r\nWriting library             : VirtualDub build 35491/release\r\n\r\nVideo\r\nID                          : 0\r\nFormat                      : MPEG-4 Visual\r\nFormat profile              : Advanced   \r\nFormat settings, BVOP       : 2\r\nFormat settings, QPel       : No\r\nFormat settings, GMC        : No warppoints\r\nFormat settings, Matrix     : Default (H.263)\r\nMuxing mode                 : Packed bitstream\r\nCodec ID                    : XVID\r\nCodec ID/Hint               : XviD\r\nDuration                    : 2h 7mn\r\nBit rate                    : 1 235 Kbps\r\nWidth                       : 720 pixels\r\nHeight                      : 320 pixels\r\nDisplay aspect ratio        : 2.25:1\r\nFrame rate                  : 29.970 (30000/1001) fps\r\nColor space                 : YUV\r\nChroma subsampling          : 4:2:0\r\nBit depth                   : 8 bits\r\nScan type                   : Progressive\r\nCompression mode            : Lossy\r\nBits/(Pixel*Frame)          : 0.179\r\nStream size                 : 1.10 GiB (86%)\r\nWriting library             : XviD 67\r\n\r\nAudio\r\nID                          : 1\r\nFormat                      : AC-3\r\nFormat/Info                 : Audio Coding 3\r\nMode extension              : CM (complete main)\r\nFormat settings, Endianness : Big\r\nCodec ID                    : 2000\r\nDuration                    : 2h 7mn\r\nBit rate mode               : Constant\r\nBit rate                    : 192 Kbps\r\nChannel(s)                  : 2 channels\r\nChannel positions           : Front: L R\r\nSampling rate               : 48.0 KHz\r\nFrame rate                  : 31.250 fps (1536 spf)\r\nCompression mode            : Lossy\r\nStream size                 : 174 MiB (13%)\r\nAlignment                   : Split accross interleaves\r\nInterleave, duration        : 33 ms (1.00 video frame)\r\nInterleave, preload duratio : 500 ms\r\n\r\n\r\nE N C O D E R S . N O T E S . . .       \r\n\r\nSOURCE......: ViDEO...RUS\r\n............: AUDiO...Th0ravenge\r\nSAMPLE......: Yippers 2 one for dark spots\r\nADDED NOTE..: vid is ok... ran a few filters to try to fix some of the hotspots and where it was dark. not to bad. audio is pretty good but movie is bad ass... enjoy\r\n\r\n \nhttp://extraimago.com/image/VmH \nhttp://extraimago.com/image/Vmk \nhttp://extraimago.com/image/Vmo \nhttp://extraimago.com/image/Vmt \nhttp://extraimago.com/image/Vmx","torrent":{"xt":"urn:btih:0cd44b51116d374739cc678125e10ade95e9a0e2","amp;dn":"Star.Wars.The.Force.Awakens.2015.UNMARKED.TS.XviD-VAiN","amp;tr":["udp%3A%2F%2Ftracker.leechers-paradise.org%3A6969","udp%3A%2F%2Fzer0day.ch%3A1337","udp%3A%2F%2Fopen.demonii.com%3A1337","udp%3A%2F%2Ftracker.coppersurfer.tk%3A6969","udp%3A%2F%2Fexodus.desync.com%3A6969"],"infoHash":"0cd44b51116d374739cc678125e10ade95e9a0e2","infoHashBuffer":{"type":"Buffer","data":[12,212,75,81,17,109,55,71,57,204,103,129,37,225,10,222,149,233,160,226]},"announce":[],"urlList":[]}}